<svg xmlns="http://www.w3.org/2000/svg" xmlns:xlink="http://www.w3.org/1999/xlink" width="700" zoomAndPan="magnify" viewBox="0 0 525 525.000007" height="700" preserveAspectRatio="xMidYMid meet" version="1.0"><defs><g/><clipPath id="4a68818488"><path d="M 0.5 0 L 524.5 0 L 524.5 524 L 0.5 524 Z M 0.5 0 " clip-rule="nonzero"/></clipPath></defs><g clip-path="url(#4a68818488)"><path fill="#ffffff" d="M 0.5 0 L 524.5 0 L 524.5 531.488281 L 0.5 531.488281 Z M 0.5 0 " fill-opacity="1" fill-rule="nonzero"/><path fill="#ffffff" d="M 0.5 0 L 524.5 0 L 524.5 524 L 0.5 524 Z M 0.5 0 " fill-opacity="1" fill-rule="nonzero"/><path fill="#ffffff" d="M 0.5 0 L 524.5 0 L 524.5 524 L 0.5 524 Z M 0.5 0 " fill-opacity="1" fill-rule="nonzero"/></g><g fill="#ffc1b2" fill-opacity="0.302"><g transform="translate(11.721956, 244.397264)"><g><path d="M 1.675781 0 L 23.476562 0 L 23.476562 -34.625 L 48.796875 0 L 77.300781 0 L 77.300781 -58.6875 L 55.503906 -58.6875 L 55.503906 -24.0625 L 30.183594 -58.6875 L 1.675781 -58.6875 Z M 1.675781 0 "/></g></g></g><g fill="#ffc1b2" fill-opacity="0.302"><g transform="translate(90.699712, 244.397264)"><g><path d="M 1.675781 0 L 63.71875 0 L 63.71875 -16.769531 L 23.476562 -16.769531 L 23.476562 -22.21875 L 63.71875 -22.21875 L 63.71875 -36.46875 L 23.476562 -36.46875 L 23.476562 -41.921875 L 63.71875 -41.921875 L 63.71875 -58.6875 L 1.675781 -58.6875 Z M 1.675781 0 "/></g></g></g><g fill="#ffc1b2" fill-opacity="0.302"><g transform="translate(155.256863, 244.397264)"><g><path d="M 20.121094 0 L 52.484375 0 L 62.125 -33.789062 L 71.765625 0 L 104.128906 0 L 123.414062 -58.6875 L 100.023438 -58.6875 L 87.863281 -17.269531 L 75.121094 -58.6875 L 49.128906 -58.6875 L 36.386719 -17.269531 L 24.230469 -58.6875 L 0.839844 -58.6875 Z M 20.121094 0 "/></g></g></g><g fill="#ffc1b2" fill-opacity="0.302"><g transform="translate(279.508458, 244.397264)"><g><path d="M 0.839844 0 L 24.816406 0 L 28.839844 -10.5625 L 53.824219 -10.5625 L 57.851562 0 L 81.828125 0 L 57.515625 -58.6875 L 25.152344 -58.6875 Z M 34.542969 -25.65625 L 41.332031 -43.597656 L 48.125 -25.65625 Z M 34.542969 -25.65625 "/></g></g></g><g fill="#ffc1b2" fill-opacity="0.302"><g transform="translate(362.17516, 244.397264)"><g><path d="M 35.214844 0.839844 C 47.539062 0.839844 55.25 -2.683594 60.199219 -8.46875 L 61.789062 0 L 74.367188 0 L 74.367188 -31.941406 L 36.304688 -31.941406 L 36.304688 -20.207031 L 52.066406 -20.207031 C 51.226562 -16.265625 46.113281 -15.089844 37.726562 -15.089844 C 24.902344 -15.089844 22.636719 -21.464844 22.636719 -28.589844 C 22.636719 -35.632812 24.816406 -41.082031 37.726562 -41.082031 C 46.949219 -41.082031 51.226562 -38.316406 52.066406 -35.296875 L 74.367188 -35.296875 C 73.445312 -51.308594 61.203125 -59.527344 37.726562 -59.527344 C 13.582031 -59.527344 0.839844 -49.800781 0.839844 -29.429688 C 0.839844 -8.972656 13.582031 0.839844 35.214844 0.839844 Z M 35.214844 0.839844 "/></g></g></g><g fill="#ffc1b2" fill-opacity="0.302"><g transform="translate(437.380097, 244.397264)"><g><path d="M 1.675781 0 L 63.71875 0 L 63.71875 -16.769531 L 23.476562 -16.769531 L 23.476562 -22.21875 L 63.71875 -22.21875 L 63.71875 -36.46875 L 23.476562 -36.46875 L 23.476562 -41.921875 L 63.71875 -41.921875 L 63.71875 -58.6875 L 1.675781 -58.6875 Z M 1.675781 0 "/></g></g></g><g fill="#ffc1b2" fill-opacity="0.502"><g transform="translate(13.940748, 245.339092)"><g><path d="M 1.675781 0 L 23.476562 0 L 23.476562 -34.625 L 48.796875 0 L 77.300781 0 L 77.300781 -58.6875 L 55.503906 -58.6875 L 55.503906 -24.0625 L 30.183594 -58.6875 L 1.675781 -58.6875 Z M 1.675781 0 "/></g></g></g><g fill="#ffc1b2" fill-opacity="0.502"><g transform="translate(92.918504, 245.339092)"><g><path d="M 1.675781 0 L 63.71875 0 L 63.71875 -16.769531 L 23.476562 -16.769531 L 23.476562 -22.21875 L 63.71875 -22.21875 L 63.71875 -36.46875 L 23.476562 -36.46875 L 23.476562 -41.921875 L 63.71875 -41.921875 L 63.71875 -58.6875 L 1.675781 -58.6875 Z M 1.675781 0 "/></g></g></g><g fill="#ffc1b2" fill-opacity="0.502"><g transform="translate(157.475655, 245.339092)"><g><path d="M 20.121094 0 L 52.484375 0 L 62.125 -33.789062 L 71.765625 0 L 104.128906 0 L 123.414062 -58.6875 L 100.023438 -58.6875 L 87.863281 -17.269531 L 75.121094 -58.6875 L 49.128906 -58.6875 L 36.386719 -17.269531 L 24.230469 -58.6875 L 0.839844 -58.6875 Z M 20.121094 0 "/></g></g></g><g fill="#ffc1b2" fill-opacity="0.502"><g transform="translate(281.72725, 245.339092)"><g><path d="M 0.839844 0 L 24.816406 0 L 28.839844 -10.5625 L 53.824219 -10.5625 L 57.851562 0 L 81.828125 0 L 57.515625 -58.6875 L 25.152344 -58.6875 Z M 34.542969 -25.65625 L 41.332031 -43.597656 L 48.125 -25.65625 Z M 34.542969 -25.65625 "/></g></g></g><g fill="#ffc1b2" fill-opacity="0.502"><g transform="translate(364.393952, 245.339092)"><g><path d="M 35.214844 0.839844 C 47.539062 0.839844 55.25 -2.683594 60.199219 -8.46875 L 61.789062 0 L 74.367188 0 L 74.367188 -31.941406 L 36.304688 -31.941406 L 36.304688 -20.207031 L 52.066406 -20.207031 C 51.226562 -16.265625 46.113281 -15.089844 37.726562 -15.089844 C 24.902344 -15.089844 22.636719 -21.464844 22.636719 -28.589844 C 22.636719 -35.632812 24.816406 -41.082031 37.726562 -41.082031 C 46.949219 -41.082031 51.226562 -38.316406 52.066406 -35.296875 L 74.367188 -35.296875 C 73.445312 -51.308594 61.203125 -59.527344 37.726562 -59.527344 C 13.582031 -59.527344 0.839844 -49.800781 0.839844 -29.429688 C 0.839844 -8.972656 13.582031 0.839844 35.214844 0.839844 Z M 35.214844 0.839844 "/></g></g></g><g fill="#ffc1b2" fill-opacity="0.502"><g transform="translate(439.598889, 245.339092)"><g><path d="M 1.675781 0 L 63.71875 0 L 63.71875 -16.769531 L 23.476562 -16.769531 L 23.476562 -22.21875 L 63.71875 -22.21875 L 63.71875 -36.46875 L 23.476562 -36.46875 L 23.476562 -41.921875 L 63.71875 -41.921875 L 63.71875 -58.6875 L 1.675781 -58.6875 Z M 1.675781 0 "/></g></g></g><g fill="#000000" fill-opacity="1"><g transform="translate(16.159541, 246.280907)"><g><path d="M 1.675781 0 L 23.476562 0 L 23.476562 -34.625 L 48.796875 0 L 77.300781 0 L 77.300781 -58.6875 L 55.503906 -58.6875 L 55.503906 -24.0625 L 30.183594 -58.6875 L 1.675781 -58.6875 Z M 1.675781 0 "/></g></g></g><g fill="#000000" fill-opacity="1"><g transform="translate(95.137298, 246.280907)"><g><path d="M 1.675781 0 L 63.71875 0 L 63.71875 -16.769531 L 23.476562 -16.769531 L 23.476562 -22.21875 L 63.71875 -22.21875 L 63.71875 -36.46875 L 23.476562 -36.46875 L 23.476562 -41.921875 L 63.71875 -41.921875 L 63.71875 -58.6875 L 1.675781 -58.6875 Z M 1.675781 0 "/></g></g></g><g fill="#000000" fill-opacity="1"><g transform="translate(159.694448, 246.280907)"><g><path d="M 20.121094 0 L 52.484375 0 L 62.125 -33.789062 L 71.765625 0 L 104.128906 0 L 123.414062 -58.6875 L 100.023438 -58.6875 L 87.863281 -17.269531 L 75.121094 -58.6875 L 49.128906 -58.6875 L 36.386719 -17.269531 L 24.230469 -58.6875 L 0.839844 -58.6875 Z M 20.121094 0 "/></g></g></g><g fill="#000000" fill-opacity="1"><g transform="translate(283.946043, 246.280907)"><g><path d="M 0.839844 0 L 24.816406 0 L 28.839844 -10.5625 L 53.824219 -10.5625 L 57.851562 0 L 81.828125 0 L 57.515625 -58.6875 L 25.152344 -58.6875 Z M 34.542969 -25.65625 L 41.332031 -43.597656 L 48.125 -25.65625 Z M 34.542969 -25.65625 "/></g></g></g><g fill="#000000" fill-opacity="1"><g transform="translate(366.612745, 246.280907)"><g><path d="M 35.214844 0.839844 C 47.539062 0.839844 55.25 -2.683594 60.199219 -8.46875 L 61.789062 0 L 74.367188 0 L 74.367188 -31.941406 L 36.304688 -31.941406 L 36.304688 -20.207031 L 52.066406 -20.207031 C 51.226562 -16.265625 46.113281 -15.089844 37.726562 -15.089844 C 24.902344 -15.089844 22.636719 -21.464844 22.636719 -28.589844 C 22.636719 -35.632812 24.816406 -41.082031 37.726562 -41.082031 C 46.949219 -41.082031 51.226562 -38.316406 52.066406 -35.296875 L 74.367188 -35.296875 C 73.445312 -51.308594 61.203125 -59.527344 37.726562 -59.527344 C 13.582031 -59.527344 0.839844 -49.800781 0.839844 -29.429688 C 0.839844 -8.972656 13.582031 0.839844 35.214844 0.839844 Z M 35.214844 0.839844 "/></g></g></g><g fill="#000000" fill-opacity="1"><g transform="translate(441.817682, 246.280907)"><g><path d="M 1.675781 0 L 63.71875 0 L 63.71875 -16.769531 L 23.476562 -16.769531 L 23.476562 -22.21875 L 63.71875 -22.21875 L 63.71875 -36.46875 L 23.476562 -36.46875 L 23.476562 -41.921875 L 63.71875 -41.921875 L 63.71875 -58.6875 L 1.675781 -58.6875 Z M 1.675781 0 "/></g></g></g><g fill="#ffc1b2" fill-opacity="0.302"><g transform="translate(175.39067, 317.757528)"><g><path d="M 38.566406 0.839844 C 64.304688 0.839844 75.457031 -9.054688 75.457031 -29.429688 L 75.457031 -58.6875 L 53.65625 -58.6875 L 53.65625 -29.429688 C 53.65625 -23.222656 51.394531 -17.605469 38.566406 -17.605469 C 25.738281 -17.605469 23.476562 -23.140625 23.476562 -29.429688 L 23.476562 -58.6875 L 1.675781 -58.6875 L 1.675781 -29.429688 C 1.675781 -8.972656 12.742188 0.839844 38.566406 0.839844 Z M 38.566406 0.839844 "/></g></g></g><g fill="#ffc1b2" fill-opacity="0.302"><g transform="translate(252.523914, 317.757528)"><g><path d="M 0.839844 0 L 29.34375 0 L 44.101562 -16.769531 L 58.855469 0 L 87.363281 0 L 59.609375 -29.34375 L 87.363281 -58.6875 L 58.855469 -58.6875 L 44.101562 -41.921875 L 29.34375 -58.6875 L 0.839844 -58.6875 L 28.589844 -29.34375 Z M 0.839844 0 "/></g></g></g><g fill="#ffc1b2" fill-opacity="0.502"><g transform="translate(177.609462, 318.699357)"><g><path d="M 38.566406 0.839844 C 64.304688 0.839844 75.457031 -9.054688 75.457031 -29.429688 L 75.457031 -58.6875 L 53.65625 -58.6875 L 53.65625 -29.429688 C 53.65625 -23.222656 51.394531 -17.605469 38.566406 -17.605469 C 25.738281 -17.605469 23.476562 -23.140625 23.476562 -29.429688 L 23.476562 -58.6875 L 1.675781 -58.6875 L 1.675781 -29.429688 C 1.675781 -8.972656 12.742188 0.839844 38.566406 0.839844 Z M 38.566406 0.839844 "/></g></g></g><g fill="#ffc1b2" fill-opacity="0.502"><g transform="translate(254.742706, 318.699357)"><g><path d="M 0.839844 0 L 29.34375 0 L 44.101562 -16.769531 L 58.855469 0 L 87.363281 0 L 59.609375 -29.34375 L 87.363281 -58.6875 L 58.855469 -58.6875 L 44.101562 -41.921875 L 29.34375 -58.6875 L 0.839844 -58.6875 L 28.589844 -29.34375 Z M 0.839844 0 "/></g></g></g><g fill="#000000" fill-opacity="1"><g transform="translate(179.828255, 319.641171)"><g><path d="M 38.566406 0.839844 C 64.304688 0.839844 75.457031 -9.054688 75.457031 -29.429688 L 75.457031 -58.6875 L 53.65625 -58.6875 L 53.65625 -29.429688 C 53.65625 -23.222656 51.394531 -17.605469 38.566406 -17.605469 C 25.738281 -17.605469 23.476562 -23.140625 23.476562 -29.429688 L 23.476562 -58.6875 L 1.675781 -58.6875 L 1.675781 -29.429688 C 1.675781 -8.972656 12.742188 0.839844 38.566406 0.839844 Z M 38.566406 0.839844 "/></g></g></g><g fill="#000000" fill-opacity="1"><g transform="translate(256.961499, 319.641171)"><g><path d="M 0.839844 0 L 29.34375 0 L 44.101562 -16.769531 L 58.855469 0 L 87.363281 0 L 59.609375 -29.34375 L 87.363281 -58.6875 L 58.855469 -58.6875 L 44.101562 -41.921875 L 29.34375 -58.6875 L 0.839844 -58.6875 L 28.589844 -29.34375 Z M 0.839844 0 "/></g></g></g></svg>